<svg width="183" height="79" viewBox="0 0 183 79" fill="none" xmlns="http://www.w3.org/2000/svg">
<circle opacity="0.2" cx="143.5" cy="39.4999" r="39.5" fill="#45C9F9"/>
<path d="M144.611 46.3053L151.004 39.8211C151.149 39.6741 151.23 39.476 151.23 39.2697C151.23 39.0633 151.149 38.8652 151.004 38.7182L144.612 32.234C144.465 32.0856 144.266 32.0014 144.058 31.9999C143.849 31.9984 143.649 32.0798 143.5 32.2261C143.352 32.3724 143.268 32.5716 143.266 32.78C143.265 32.9884 143.346 33.1888 143.492 33.3372L148.566 38.484H135.785C135.577 38.484 135.377 38.5668 135.23 38.7141C135.083 38.8615 135 39.0613 135 39.2697C135 39.478 135.083 39.6778 135.23 39.8252C135.377 39.9725 135.577 40.0553 135.785 40.0553H148.566L143.492 45.2021C143.346 45.3505 143.264 45.5509 143.266 45.7593C143.267 45.9677 143.352 46.167 143.5 46.3132C143.648 46.4595 143.849 46.5409 144.057 46.5394C144.266 46.5379 144.465 46.4537 144.611 46.3053Z" fill="#45C9F9"/>
<circle cx="39.5" cy="39.5" r="39.5" transform="matrix(-1 0 0 1 79 -0.00012207)" fill="#F8F8F8"/>
<path d="M38.3888 46.3053L31.9956 39.8211C31.8507 39.6741 31.7695 39.476 31.7695 39.2697C31.7695 39.0633 31.8507 38.8652 31.9956 38.7182L38.3884 32.234C38.5347 32.0856 38.734 32.0014 38.9424 31.9999C39.1508 31.9984 39.3512 32.0798 39.4996 32.2261C39.648 32.3724 39.7322 32.5716 39.7337 32.78C39.7352 32.9884 39.6538 33.1888 39.5075 33.3372L34.4336 38.484H47.2146C47.423 38.484 47.6228 38.5668 47.7701 38.7141C47.9175 38.8615 48.0002 39.0613 48.0002 39.2697C48.0002 39.478 47.9175 39.6778 47.7701 39.8252C47.6228 39.9725 47.423 40.0553 47.2146 40.0553H34.434L39.5079 45.2021C39.6542 45.3505 39.7355 45.5509 39.7341 45.7593C39.7326 45.9677 39.6484 46.167 39.5 46.3132C39.3516 46.4595 39.1511 46.5409 38.9427 46.5394C38.7344 46.5379 38.5351 46.4537 38.3888 46.3053Z" fill="#515151"/>
</svg>
