<svg width="78" height="13" viewBox="0 0 78 13" fill="none" xmlns="http://www.w3.org/2000/svg">
<path d="M6.6574 -0.00012207L8.22899 4.83676H13.3148L9.20029 7.82612L10.7719 12.663L6.6574 9.67364L2.5429 12.663L4.1145 7.82612L0 4.83676H5.0858L6.6574 -0.00012207Z" fill="#FFC700"/>
<path d="M22.6574 -0.00012207L24.229 4.83676H29.3148L25.2003 7.82612L26.7719 12.663L22.6574 9.67364L18.5429 12.663L20.1145 7.82612L16 4.83676H21.0858L22.6574 -0.00012207Z" fill="#FFC700"/>
<path d="M38.6574 -0.00012207L40.229 4.83676H45.3148L41.2003 7.82612L42.7719 12.663L38.6574 9.67364L34.5429 12.663L36.1145 7.82612L32 4.83676H37.0858L38.6574 -0.00012207Z" fill="#FFC700"/>
<path d="M54.6574 -0.00012207L56.229 4.83676H61.3148L57.2003 7.82612L58.7719 12.663L54.6574 9.67364L50.5429 12.663L52.1145 7.82612L48 4.83676H53.0858L54.6574 -0.00012207Z" fill="#FFC700"/>
<path d="M70.6574 -0.00012207L72.229 4.83676H77.3148L73.2003 7.82612L74.7719 12.663L70.6574 9.67364L66.5429 12.663L68.1145 7.82612L64 4.83676H69.0858L70.6574 -0.00012207Z" fill="#FFC700"/>
</svg>
